HIERARCHY
ROOT SpineBase
{
  OFFSET 0.000000 0.000000 0.000000
  CHANNELS 6 Xposition Yposition Zposition Zrotation Xrotation Yrotation
  JOINT SpineMid
  {
    OFFSET -0.000000 25.684606 0.000000
    CHANNELS 3 Zrotation Xrotation Yrotation
    JOINT SpineShoulder
    {
      OFFSET -0.051107 19.165342 -0.675725
      CHANNELS 3 Zrotation Xrotation Yrotation
      JOINT Neck
      {
        OFFSET -0.036295 6.374836 -0.499574
        CHANNELS 3 Zrotation Xrotation Yrotation
        JOINT Head
        {
          OFFSET -3.250679 11.580603 0.741669
          CHANNELS 3 Zrotation Xrotation Yrotation
          End Site
          {
            OFFSET 0 0 0
          }
        }
      }
      JOINT ShoulderLeft
      {
        OFFSET -13.764505 -3.430151 6.253496
        CHANNELS 3 Zrotation Xrotation Yrotation
        JOINT ElbowLeft
        {
          OFFSET -8.420281 -13.566253 11.805212
          CHANNELS 3 Zrotation Xrotation Yrotation
          JOINT WristLeft
          {
            OFFSET 12.943731 -1.506175 -25.889684
            CHANNELS 3 Zrotation Xrotation Yrotation
            JOINT HandLeft
            {
              OFFSET -7.243582 3.771427 -16.107666
              CHANNELS 3 Zrotation Xrotation Yrotation
              JOINT HandTipLeft
              {
                OFFSET 1.576028 2.741938 -6.700523
                CHANNELS 3 Zrotation Xrotation Yrotation
                End Site
                {
                  OFFSET 0 0 0
                }
              }
              JOINT ThumbLeft
              {
                OFFSET 3.730011 1.340339 -5.155327
                CHANNELS 3 Zrotation Xrotation Yrotation
                End Site
                {
                  OFFSET 0 0 0
                }
              }
            }
          }
        }
      }
      JOINT ShoulderRight
      {
        OFFSET 11.896534 -0.656674 -5.633859
        CHANNELS 3 Zrotation Xrotation Yrotation
        JOINT ElbowRight
        {
          OFFSET 5.384577 -20.150885 -3.091052
          CHANNELS 3 Zrotation Xrotation Yrotation
          JOINT WristRight
          {
            OFFSET -24.651408 -2.288424 -8.436298
            CHANNELS 3 Zrotation Xrotation Yrotation
            JOINT HandRight
            {
              OFFSET -4.496888 2.732448 1.685236
              CHANNELS 3 Zrotation Xrotation Yrotation
              JOINT HandTipRight
              {
                OFFSET -5.272360 1.398784 -0.278438
                CHANNELS 3 Zrotation Xrotation Yrotation
                End Site
                {
                  OFFSET 0 0 0
                }
              }
              JOINT ThumbRight
              {
                OFFSET 0.236425 -2.417642 0.951549
                CHANNELS 3 Zrotation Xrotation Yrotation
                End Site
                {
                  OFFSET 0 0 0
                }
              }
            }
          }
        }
      }
    }
  }
  JOINT HipLeft
  {
    OFFSET -5.779286 0.200314 -1.264476
    CHANNELS 3 Zrotation Xrotation Yrotation
    JOINT KneeLeft
    {
      OFFSET 4.025031 -33.484404 3.293431
      CHANNELS 3 Zrotation Xrotation Yrotation
      JOINT AnkleLeft
      {
        OFFSET 6.087009 -31.684156 6.504974
        CHANNELS 3 Zrotation Xrotation Yrotation
        JOINT FootLeft
        {
          OFFSET -3.768484 -1.881999 -11.140708
          CHANNELS 3 Zrotation Xrotation Yrotation
          End Site
          {
            OFFSET 0 0 0
          }
        }
      }
    }
  }
  JOINT HipRight
  {
    OFFSET 5.355889 1.293690 -4.812534
    CHANNELS 3 Zrotation Xrotation Yrotation
    JOINT KneeRight
    {
      OFFSET 4.879032 -32.578393 0.418103
      CHANNELS 3 Zrotation Xrotation Yrotation
      JOINT AnkleRight
      {
        OFFSET 1.999758 -33.435929 7.744571
        CHANNELS 3 Zrotation Xrotation Yrotation
        JOINT FootRight
        {
          OFFSET -3.285339 -2.365443 -9.754682
          CHANNELS 3 Zrotation Xrotation Yrotation
          End Site
          {
            OFFSET 0 0 0
          }
        }
      }
    }
  }
}
MOTION
Frames: 10
Frame Time: 0.033333
24.156217 72.727131 363.445786 3.105901 0.251587 19.450840 0.125297 0.139911 -19.349166 -0.077224 -0.116952 0.134483 -1.593012 -5.678982 -1.781513 0.000000 0.000000 0.000000 67.454835 54.389666 -65.751055 -13.103004 -65.531578 -3.347190 -47.058057 40.037525 0.130383 31.495062 -60.959771 -15.948960 0.000000 0.000000 0.000000 0.000000 0.000000 0.000000 -12.598195 18.926885 7.915604 -18.287152 -6.093767 -13.939397 31.478016 -19.074783 -14.252614 -13.373085 6.619618 19.557315 0.000000 0.000000 0.000000 0.000000 0.000000 0.000000 -3.012539 0.796899 -19.436705 1.041801 0.213740 0.252669 0.873981 -5.267070 -2.058207 0.000000 0.000000 0.000000 -1.491993 1.125662 -19.323204 -2.628283 -1.557057 -0.520854 1.449060 0.874757 -0.464657 0.000000 0.000000 0.000000
24.124920 72.712706 363.505178 3.140783 0.291369 19.424631 0.102583 0.137207 -19.323308 -0.095048 -0.125359 0.133887 -1.438456 -5.577536 -1.749539 0.000000 0.000000 0.000000 58.112895 52.995179 -51.271825 -18.352490 -51.917840 -3.972699 -32.875332 16.920387 14.054533 15.337583 -42.598802 -3.971165 0.000000 0.000000 0.000000 0.000000 0.000000 0.000000 -12.725446 19.167585 8.046676 -18.243960 -6.651963 -13.286280 30.300592 -20.070285 -16.446331 -7.693582 10.008147 23.302493 0.000000 0.000000 0.000000 0.000000 0.000000 0.000000 -3.059008 0.769649 -19.412068 1.225531 0.362879 0.317007 -1.387199 -0.673732 1.267983 0.000000 0.000000 0.000000 -1.572007 1.123674 -19.296318 -2.295574 -1.396475 -0.436625 1.004579 0.578839 0.262405 0.000000 0.000000 0.000000
24.088990 72.693664 363.558703 3.141303 0.311698 19.394339 0.078275 0.139247 -19.294206 -0.113245 -0.133019 0.131543 -1.123767 -5.385540 -1.695626 0.000000 0.000000 0.000000 50.447292 50.606778 -39.284592 -20.182285 -40.763916 -3.181049 -26.506546 7.959286 10.414285 19.643286 -28.413085 16.521346 0.000000 0.000000 0.000000 0.000000 0.000000 0.000000 -13.337753 19.372711 8.344521 -17.922838 -7.061119 -12.763722 30.027531 -20.727077 -17.994565 -4.139514 11.876885 23.917674 0.000000 0.000000 0.000000 0.000000 0.000000 0.000000 -3.066642 0.749057 -19.382834 1.334105 0.469906 0.358218 -0.698719 -2.425470 -0.269945 0.000000 0.000000 0.000000 -1.590679 1.107397 -19.266609 -2.116626 -1.247653 -0.384478 0.838560 0.428285 0.216808 0.000000 0.000000 0.000000
24.052568 72.669407 363.611729 3.132445 0.283332 19.327334 0.044123 0.132985 -19.227448 -0.125412 -0.141830 0.128892 -0.817546 -5.018341 -1.612062 0.000000 0.000000 0.000000 45.818417 48.352898 -31.408299 -20.766033 -33.885050 -4.160720 -25.133373 5.706630 3.045342 23.885757 -29.820004 30.112334 0.000000 0.000000 0.000000 0.000000 0.000000 0.000000 -13.419253 19.509533 8.434452 -17.932749 -7.335302 -12.220195 30.264958 -20.736581 -18.517897 -2.925295 12.697286 25.169343 0.000000 0.000000 0.000000 0.000000 0.000000 0.000000 -3.049785 0.769272 -19.314602 1.389911 0.488045 0.372670 1.083626 -7.003800 -3.140136 0.000000 0.000000 0.000000 -1.561837 1.175241 -19.192669 -2.333745 -1.405895 -0.455485 1.190366 1.887544 -2.063093 0.000000 0.000000 0.000000
24.020937 72.641029 363.663039 3.145374 0.285121 19.255200 0.053487 0.146159 -19.155175 -0.107061 -0.130063 0.130995 -0.857312 -4.974751 -1.595738 0.000000 0.000000 0.000000 43.712885 47.021142 -27.557898 -20.945687 -29.920774 -3.945967 -24.835510 5.281382 -1.874035 26.521765 -28.335516 36.860257 0.000000 0.000000 0.000000 0.000000 0.000000 0.000000 -12.736929 19.290605 8.114141 -18.442123 -7.249806 -11.803384 27.506285 -22.067231 -20.954600 -1.961443 14.524348 26.659365 0.000000 0.000000 0.000000 0.000000 0.000000 0.000000 -3.063547 0.768007 -19.242491 1.339625 0.551274 0.374039 1.782568 -8.866471 -4.106947 0.000000 0.000000 0.000000 -1.538924 1.240264 -19.110924 -1.286108 -0.944907 -0.168893 -0.317005 1.583089 -0.836340 0.000000 0.000000 0.000000
24.004785 72.612752 363.704674 3.133230 0.325444 19.156865 0.055823 0.176688 -19.059250 -0.092930 -0.112968 0.131110 -0.585242 -4.997860 -1.581332 0.000000 0.000000 0.000000 43.378472 46.723686 -26.766680 -21.218973 -30.947511 -6.683623 -25.527124 9.393729 -11.668843 34.620585 -27.585831 51.132451 0.000000 0.000000 0.000000 0.000000 0.000000 0.000000 -11.748961 18.781358 7.623580 -19.020863 -6.947519 -11.384411 27.304354 -21.869846 -20.850349 -2.260215 13.532966 24.246438 0.000000 0.000000 0.000000 0.000000 0.000000 0.000000 -3.066591 0.720733 -19.146473 1.180369 0.663326 0.362662 2.332707 -10.096022 -4.694863 0.000000 0.000000 0.000000 -1.515788 1.259746 -19.004539 -1.290916 -1.014149 -0.180163 -0.353178 -0.127906 1.634118 0.000000 0.000000 0.000000
24.000715 72.586686 363.743317 3.133631 0.396389 19.043383 0.068914 0.207294 -18.948259 -0.074516 -0.092367 0.132621 -0.399114 -5.134063 -1.586929 0.000000 0.000000 0.000000 42.876977 46.266802 -25.560422 -21.343060 -30.307125 -7.785303 -25.471653 9.218165 -13.727471 36.075983 -20.941355 60.957921 0.000000 0.000000 0.000000 0.000000 0.000000 0.000000 -10.444542 18.117135 6.987357 -19.796798 -6.557459 -10.918879 25.347063 -22.736079 -22.668588 -2.918627 14.286631 25.385013 0.000000 0.000000 0.000000 0.000000 0.000000 0.000000 -3.091495 0.647826 -19.036744 0.894073 0.608947 0.295679 1.908549 -8.092363 -3.210008 0.000000 0.000000 0.000000 -1.503139 1.290142 -18.878755 -0.523804 -0.650719 0.021127 0.277553 -7.394143 6.919851 0.000000 0.000000 0.000000
24.007911 72.579864 363.774473 3.120697 0.470728 18.941717 0.070555 0.243736 -18.850081 -0.074316 -0.080063 0.131652 -0.076019 -5.391130 -1.620259 0.000000 0.000000 0.000000 43.849101 46.712077 -26.553423 -21.541002 -30.117749 -6.202212 -25.427428 9.133089 -14.280318 36.360490 -26.252350 55.941665 0.000000 0.000000 0.000000 0.000000 0.000000 0.000000 -8.886736 17.378470 6.287199 -20.697964 -6.048049 -10.625164 23.501965 -23.587551 -24.397455 -4.603043 15.682718 30.527484 0.000000 0.000000 0.000000 0.000000 0.000000 0.000000 -3.104494 0.567933 -18.939149 0.740843 0.554175 0.254922 2.142893 -8.312767 -3.042474 0.000000 0.000000 0.000000 -1.490656 1.302406 -18.766743 -0.046651 -0.478140 0.138359 1.828193 -14.109279 12.228943 0.000000 0.000000 0.000000
24.023770 72.569098 363.802327 3.116008 0.559061 18.871545 0.076163 0.276035 -18.783241 -0.072941 -0.071610 0.131480 0.093628 -5.755948 -1.677545 0.000000 0.000000 0.000000 43.634305 46.425767 -25.749174 -21.688645 -26.968050 -2.429603 -24.250134 7.336415 -20.018490 34.097450 -22.558486 54.647311 0.000000 0.000000 0.000000 0.000000 0.000000 0.000000 -6.899115 16.475388 5.432137 -21.753331 -5.452422 -10.414321 19.686048 -25.005137 -27.442010 -4.971375 16.762649 30.791993 0.000000 0.000000 0.000000 0.000000 0.000000 0.000000 -3.129279 0.479155 -18.873663 -0.000000 0.000000 0.000000 3.500849 -9.364083 -3.635354 0.000000 0.000000 0.000000 -1.528552 1.248118 -18.695299 0.257165 -0.358745 0.211586 3.510079 -18.893366 16.179826 0.000000 0.000000 0.000000
24.044656 72.574210 363.834073 3.136013 0.663322 18.758781 0.093498 0.302089 -18.672965 -0.060736 -0.059978 0.133894 -0.019690 -6.377494 -1.798845 0.000000 0.000000 0.000000 43.449834 46.212845 -25.212737 -21.921678 -25.385394 -0.589678 -23.920467 6.561100 -20.806325 31.731245 -20.418175 51.410595 0.000000 0.000000 0.000000 0.000000 0.000000 0.000000 -5.884888 15.959196 4.995795 -22.235552 -5.115493 -10.642724 17.823778 -25.619467 -28.583578 -5.000561 17.540880 31.535901 0.000000 0.000000 0.000000 0.000000 0.000000 0.000000 -3.182645 0.380861 -18.766358 -0.000000 0.000000 0.000000 4.459434 -12.052458 -5.775364 0.000000 0.000000 0.000000 -1.624561 1.200329 -18.581304 0.552419 -0.282435 0.272869 4.171057 -20.815753 17.452371 0.000000 0.000000 0.000000
